<svg width="101" height="100" viewBox="0 0 101 100" fill="none" xmlns="http://www.w3.org/2000/svg">
<path fill-rule="evenodd" clip-rule="evenodd" d="M48.3723 21.3333L50.5571 24.4433C50.8562 24.4102 51.1636 24.3936 51.4876 24.3936C51.8115 24.3936 52.1189 24.4184 52.418 24.4433L54.6194 21.3167C54.8188 21.043 55.1926 20.9103 55.5415 21.0679L59.2798 22.7764C59.5872 22.9256 59.7699 23.2657 59.6951 23.614L58.9558 27.1304C59.4792 27.5699 59.9527 28.0427 60.393 28.5652L63.8986 27.827C64.2475 27.7524 64.5965 27.9349 64.7377 28.2417L66.4324 31.9737C66.5819 32.3055 66.4739 32.687 66.1749 32.8943M66.1749 32.8943L63.0513 35.0921C63.0762 35.3906 63.0929 35.6892 63.0929 36.0043C63.0929 36.3195 63.0762 36.6264 63.0513 36.9249L66.1832 39.1227C66.4573 39.3217 66.5902 39.6949 66.4324 40.0432L64.7294 43.7753C64.5798 44.0821 64.2393 44.2646 63.8904 44.1899L59.9444 43.3606C59.7616 43.3274 59.5705 43.2362 59.4376 43.0455C59.313 42.8713 59.2715 42.6474 59.3213 42.4483V42.4317V42.4152C59.3795 42.2244 59.5041 42.0502 59.6785 41.9507C59.8613 41.8512 60.069 41.8346 60.2684 41.8927L63.6162 42.6059L64.8042 39.9852L61.8468 37.8952C61.5975 37.7294 61.4895 37.4474 61.5144 37.1903C61.5643 36.7922 61.5892 36.3941 61.5892 35.9961C61.5892 35.598 61.5643 35.2082 61.5144 34.8184C61.4812 34.5281 61.6141 34.2627 61.8384 34.1135L64.7958 32.0235L63.6079 29.4028L60.2351 30.116C59.9693 30.1741 59.6702 30.0911 59.4875 29.8506C58.9641 29.154 58.3244 28.532 57.6432 28.0012C57.4106 27.8105 57.3276 27.5119 57.3774 27.2465L58.1002 23.8711L55.475 22.6851L53.3816 25.6376C53.2155 25.8864 52.933 25.9942 52.6755 25.9693C52.2767 25.9196 51.878 25.8864 51.4876 25.8864C51.0971 25.8864 50.7067 25.9278 50.2913 25.9693C50.0089 26.0025 49.743 25.8698 49.5852 25.6459L47.4917 22.6851L44.8666 23.8711L45.5894 27.2465C45.6475 27.5119 45.5644 27.8105 45.3235 27.9929C44.6257 28.532 44.0027 29.154 43.4793 29.8423C43.2882 30.0829 42.9975 30.1658 42.7316 30.1077L39.3589 29.3945L38.1709 32.0152L41.1283 34.1052C41.3776 34.271 41.4856 34.553 41.4606 34.8101C41.4108 35.2082 41.3859 35.5897 41.3859 35.9878C41.3859 36.3858 41.4108 36.7839 41.4606 37.182C41.4939 37.4723 41.3609 37.7377 41.1366 37.887L38.1792 39.9769L39.3672 42.5976L42.74 41.8844C43.0058 41.8263 43.3049 41.9093 43.4876 42.1498C44.0193 42.8464 44.6423 43.4684 45.3401 43.9992C45.5727 44.1899 45.6558 44.4802 45.606 44.7539L44.8832 48.1293L47.5083 49.3153L49.6018 46.3628C49.7679 46.114 50.0504 46.0062 50.3079 46.0311C50.6983 46.0808 51.0971 46.1057 51.5042 46.1057C51.9112 46.1057 52.31 46.0808 52.7004 46.0311C52.9829 45.9979 53.2487 46.1306 53.4065 46.3545L55.5 49.3153L58.1251 48.1293L57.4106 44.7788C57.3525 44.588 57.3691 44.3807 57.4688 44.1982C57.5768 44.0075 57.7596 43.8665 57.9756 43.8167C58.1915 43.7753 58.3992 43.8167 58.5654 43.9329C58.7564 44.0573 58.8561 44.2563 58.8893 44.4388L59.7201 48.3947C59.7948 48.743 59.6121 49.0914 59.3047 49.2323L55.5664 50.9325C55.2341 51.0818 54.8437 50.974 54.636 50.6754L52.4346 47.5571C52.1355 47.582 51.8282 47.5985 51.5125 47.5985C51.1968 47.5985 50.8894 47.582 50.5903 47.5571L48.3889 50.6837C48.1895 50.9574 47.8157 51.0901 47.4668 50.9325L43.7368 49.2406C43.4045 49.0996 43.2384 48.7347 43.3049 48.3947L44.0442 44.8783C43.5208 44.4388 43.0473 43.966 42.607 43.4435L39.1014 44.1817C38.7525 44.2563 38.4035 44.0738 38.2623 43.767L36.5676 40.0349C36.4181 39.7032 36.5261 39.3217 36.8251 39.1144L39.9487 36.9249C39.9238 36.6181 39.9072 36.3112 39.9072 36.0043C39.9072 35.6975 39.9238 35.3906 39.9487 35.0921L36.8168 32.8943C36.5427 32.6953 36.4098 32.3221 36.5676 31.9737L38.2789 28.2334C38.4284 27.9266 38.7691 27.7441 39.118 27.8187L42.6236 28.5569C43.0639 28.0344 43.5375 27.5617 44.0608 27.1221L43.3215 23.6057C43.2467 23.2574 43.4295 22.909 43.7368 22.7681L47.4585 21.0762C47.5 21.0513 47.5333 21.043 47.5416 21.0347C47.5582 21.0347 47.5665 21.0264 47.5748 21.0264H47.5831L47.6496 21.0016H47.7077C47.9735 20.985 48.2311 21.1011 48.3889 21.325" fill="#F3921A"/>
<path d="M70.2274 52.873L65.3231 50M31.9524 52.7885L51.0899 64.2592M31.9524 52.7885L36.9266 50M31.9524 52.7885L25.5 61.3546L44.7773 73.3745C46.8849 70.6072 51.0899 64.9141 51.0899 64.2486M51.0899 64.2486V87C50.3208 87 49.5617 86.7888 48.9025 86.3979L33.5605 77.2721C32.2021 76.4693 31.3731 74.98 31.3731 73.364V64.9986M51.0899 64.2486L70.2274 52.7779L76.5 61.344L57.6022 73.364L51.0999 64.2381L51.0899 64.2486ZM51.0999 87C51.869 87 52.6281 86.7888 53.2873 86.3979L68.6293 77.2721C69.9877 76.4693 70.8167 74.9695 70.8167 73.364V65.0725" stroke="#333333" stroke-width="2" stroke-linecap="round" stroke-linejoin="round"/>
<path fill-rule="evenodd" clip-rule="evenodd" d="M51.5 30.6827C48.5637 30.6827 46.1827 33.0637 46.1827 36C46.1827 38.9363 48.5637 41.3173 51.5 41.3173C54.4363 41.3173 56.8173 38.9363 56.8173 36C56.8173 33.0637 54.4363 30.6827 51.5 30.6827ZM44.5 36C44.5 32.1382 47.6382 29 51.5 29C55.3618 29 58.5 32.1298 58.5 36C58.5 39.8702 55.3618 43 51.5 43C47.6382 43 44.5 39.8702 44.5 36Z" fill="#F3921A"/>
</svg>
