<svg width="100" height="100" viewBox="0 0 100 100" fill="none" xmlns="http://www.w3.org/2000/svg">
<path fill-rule="evenodd" clip-rule="evenodd" d="M65.7844 49.8955C65.7645 49.8955 49.9934 44 49.9934 44C49.9934 44 36.6517 48.5896 34.4215 49.8955C33.6847 51.3134 27.0934 62.75 34.4413 75.7537C39.3001 84.3545 47.4644 87.9552 50.1328 89C53.1197 87.8433 60.2087 84.6343 64.948 77.3395C73.5504 64.0746 65.7844 49.8955 65.7645 49.8955H65.7844Z" stroke="#F3921A" stroke-width="2" stroke-miterlimit="10"/>
<rect x="14" y="20" width="20.9664" height="16.4302" rx="1" stroke="#333333" stroke-width="2"/>
<rect x="22.6309" y="36.4961" width="3.70428" height="3.80677" fill="#333333"/>
<mask id="path-4-inside-1_3470_16004" fill="white">
<path d="M19.396 41.5219C19.396 40.5616 20.1744 39.7832 21.1347 39.7832H28.123C29.0832 39.7832 29.8617 40.5616 29.8617 41.5219H19.396Z"/>
</mask>
<path d="M19.396 39.5219C18.2914 39.5219 17.396 40.4173 17.396 41.5219C17.396 42.6265 18.2914 43.5219 19.396 43.5219V39.5219ZM21.1347 41.7832H28.123V37.7832H21.1347V41.7832ZM29.8617 39.5219H19.396V43.5219H29.8617V39.5219ZM28.123 41.7832C27.9787 41.7832 27.8617 41.6662 27.8617 41.5219H31.8617C31.8617 39.4571 30.1878 37.7832 28.123 37.7832V41.7832ZM21.1347 37.7832C19.0699 37.7832 17.396 39.4571 17.396 41.5219H21.396C21.396 41.6662 21.279 41.7832 21.1347 41.7832V37.7832Z" fill="#333333" mask="url(#path-4-inside-1_3470_16004)"/>
<rect x="39.5918" y="8" width="20.9664" height="16.4302" rx="1" stroke="#333333" stroke-width="2"/>
<rect x="48.2227" y="24.4961" width="3.70428" height="3.80677" fill="#333333"/>
<mask id="path-8-inside-2_3470_16004" fill="white">
<path d="M44.9878 29.5219C44.9878 28.5616 45.7662 27.7832 46.7265 27.7832H53.7148C54.675 27.7832 55.4535 28.5616 55.4535 29.5219H44.9878Z"/>
</mask>
<path d="M44.9878 27.5219C43.8832 27.5219 42.9878 28.4173 42.9878 29.5219C42.9878 30.6265 43.8832 31.5219 44.9878 31.5219V27.5219ZM46.7265 29.7832H53.7148V25.7832H46.7265V29.7832ZM55.4535 27.5219H44.9878V31.5219H55.4535V27.5219ZM53.7148 29.7832C53.5705 29.7832 53.4535 29.6662 53.4535 29.5219H57.4535C57.4535 27.4571 55.7796 25.7832 53.7148 25.7832V29.7832ZM46.7265 25.7832C44.6617 25.7832 42.9878 27.4571 42.9878 29.5219H46.9878C46.9878 29.6662 46.8708 29.7832 46.7265 29.7832V25.7832Z" fill="#333333" mask="url(#path-8-inside-2_3470_16004)"/>
<rect x="65.0337" y="20" width="20.9664" height="16.4302" rx="1" stroke="#333333" stroke-width="2"/>
<rect x="73.6646" y="36.4961" width="3.70428" height="3.80677" fill="#333333"/>
<mask id="path-12-inside-3_3470_16004" fill="white">
<path d="M70.4297 41.5219C70.4297 40.5616 71.2081 39.7832 72.1684 39.7832H79.1567C80.1169 39.7832 80.8954 40.5616 80.8954 41.5219H70.4297Z"/>
</mask>
<path d="M70.4297 39.5219C69.3251 39.5219 68.4297 40.4173 68.4297 41.5219C68.4297 42.6265 69.3251 43.5219 70.4297 43.5219V39.5219ZM72.1684 41.7832H79.1567V37.7832H72.1684V41.7832ZM80.8954 39.5219H70.4297V43.5219H80.8954V39.5219ZM79.1567 41.7832C79.0124 41.7832 78.8954 41.6662 78.8954 41.5219H82.8954C82.8954 39.4571 81.2215 37.7832 79.1567 37.7832V41.7832ZM72.1684 37.7832C70.1036 37.7832 68.4297 39.4571 68.4297 41.5219H72.4297C72.4297 41.6662 72.3127 41.7832 72.1684 41.7832V37.7832Z" fill="#333333" mask="url(#path-12-inside-3_3470_16004)"/>
<path d="M69 61V61C72.866 61 76 57.866 76 54V43" stroke="#F3921A" stroke-width="2" stroke-linecap="round" stroke-dasharray="1 5"/>
<path d="M31 60.9564V60.9564C27.134 60.9564 24 57.8224 24 53.9564V43.5" stroke="#F3921A" stroke-width="2" stroke-linecap="round" stroke-dasharray="1 5"/>
<path d="M50 44V33" stroke="#F3921A" stroke-width="2" stroke-linecap="round" stroke-dasharray="1 5"/>
<path d="M36 67.8951C36 68.6968 36.1629 69.4907 36.4794 70.2314C36.7959 70.972 37.2598 71.645 37.8446 72.2119C39.0258 73.3568 40.6277 74 42.298 74H59.0927C60.3327 74.0022 61.5273 73.5484 62.4357 72.7303C63.3441 71.9122 63.8986 70.7906 63.9874 69.5918C64.0762 68.3929 63.6927 67.206 62.9141 66.2705C62.1356 65.335 61.0201 64.7205 59.7925 64.551C59.8062 62.243 58.9523 60.0092 57.3904 58.2672C55.8285 56.5251 53.6656 55.394 51.306 55.0853C48.9464 54.7767 46.5516 55.3115 44.5692 56.5899C42.5868 57.8684 41.1526 59.8028 40.5346 62.0317C39.2262 62.4021 38.0769 63.1738 37.2593 64.231C36.4417 65.2882 35.9998 66.5738 36 67.8951Z" stroke="#333333" stroke-width="2" stroke-linejoin="round"/>
<path d="M44 63C44.125 62.0667 44.9 59.96 47 59" stroke="#8A8E8F" stroke-width="2" stroke-linecap="round"/>
</svg>
