<svg width="97" height="100" viewBox="0 0 97 100" fill="none" xmlns="http://www.w3.org/2000/svg">
<path d="M73.064 16H72.0319V16C69.9465 16 68.2559 17.6906 68.2559 19.776V86C68.2559 88.7614 66.0174 91 63.2559 91H29.9998C27.2383 91 24.9998 88.7614 24.9998 86V20.04C24.9998 17.8088 23.191 16 20.9597 16V16H19.9458" stroke="#8A8E8F" stroke-width="2" stroke-linecap="round"/>
<rect x="28" y="76" width="11" height="11" rx="2" fill="#F3921A"/>
<rect x="28" y="63" width="11" height="11" rx="2" fill="#333333"/>
<rect x="28" y="50" width="11" height="11" rx="2" fill="#8A8E8F"/>
<rect x="29" y="38" width="9" height="9" rx="1" stroke="#333333" stroke-width="2"/>
<rect x="41.0049" y="76" width="11" height="11" rx="2" fill="#333333"/>
<rect x="41.0049" y="63" width="11" height="11" rx="2" fill="#F3921A"/>
<rect x="54.0103" y="76" width="11" height="11" rx="2" fill="#8A8E8F"/>
<rect x="55.0103" y="64" width="9" height="9" rx="1" stroke="#333333" stroke-width="2"/>
<rect x="54.0103" y="50" width="11" height="11" rx="2" fill="#F3921A"/>
</svg>
