<svg width="25" height="25" viewBox="0 0 25 25" fill="none" xmlns="http://www.w3.org/2000/svg">
<path d="M20.5562 8.40625C20.9312 9.71875 20.9312 12.5312 20.9312 12.5312C20.9312 12.5312 20.9312 15.3125 20.5562 16.6562C20.3687 17.4062 19.7749 17.9688 19.0562 18.1562C17.7124 18.5 12.3999 18.5 12.3999 18.5C12.3999 18.5 7.05615 18.5 5.7124 18.1562C4.99365 17.9688 4.3999 17.4062 4.2124 16.6562C3.8374 15.3125 3.8374 12.5312 3.8374 12.5312C3.8374 12.5312 3.8374 9.71875 4.2124 8.40625C4.3999 7.65625 4.99365 7.0625 5.7124 6.875C7.05615 6.5 12.3999 6.5 12.3999 6.5C12.3999 6.5 17.7124 6.5 19.0562 6.875C19.7749 7.0625 20.3687 7.65625 20.5562 8.40625ZM10.6499 15.0625L15.0874 12.5312L10.6499 10V15.0625Z" fill="#8A8E8F"/>
</svg>
