<svg width="32" height="33" viewBox="0 0 32 33" fill="none" xmlns="http://www.w3.org/2000/svg">
<path d="M22 24.5C24.2091 24.5 26 22.7091 26 20.5V12.5C26 10.2909 24.2091 8.5 22 8.5H10C7.79086 8.5 6 10.2909 6 12.5V20.5C6 22.7091 7.79086 24.5 10 24.5H22Z" stroke="#333333" stroke-linecap="round" stroke-linejoin="round"/>
<path d="M22.25 26.5H10C6.68629 26.5 4 23.8137 4 20.5V12.5" stroke="#8A8E8F" stroke-linecap="round" stroke-linejoin="round"/>
<path d="M20.2025 17.3396C20.8115 16.9455 20.8115 16.0545 20.2025 15.6604L14.5432 11.9986C13.8779 11.568 13 12.0456 13 12.8381V20.1619C13 20.9544 13.8779 21.432 14.5433 21.0014L20.2025 17.3396Z" stroke="#F3921A" stroke-linecap="round" stroke-linejoin="round"/>
</svg>
