<svg width="25" height="25" viewBox="0 0 25 25" fill="none" xmlns="http://www.w3.org/2000/svg">
<path d="M19.7747 19.4742L19.774 19.4749C19.3325 19.9169 18.7193 20.1942 17.6047 20.3441C16.4614 20.4979 14.9496 20.5 12.8 20.5C10.6505 20.5 9.13892 20.4979 7.9956 20.3441C6.88111 20.1942 6.26729 19.9169 5.82476 19.4744L5.82451 19.4742C5.3828 19.0327 5.10566 18.4195 4.95584 17.3048C4.80217 16.1614 4.80005 14.6496 4.80005 12.5C4.80005 10.3504 4.80217 8.83883 4.95584 7.69546C5.1056 6.58115 5.38264 5.96731 5.82463 5.52483C6.26769 5.08256 6.88176 4.80553 7.99586 4.65579C9.13911 4.50212 10.6505 4.5 12.8 4.5C14.9496 4.5 16.4612 4.50212 17.6045 4.65579C18.7188 4.80556 19.3322 5.08262 19.7742 5.52447C20.217 5.96758 20.4943 6.58162 20.6442 7.6959C20.7979 8.8391 20.8 10.3504 20.8 12.5C20.8 14.6496 20.7979 16.1611 20.6442 17.3043C20.4943 18.4187 20.217 19.0321 19.7747 19.4742Z" stroke="#8A8E8F" stroke-width="2"/>
<path d="M12.8002 4.78564L13.4476 6.5352C14.3592 8.99867 16.3015 10.941 18.765 11.8525L20.5145 12.4999L18.765 13.1473C16.3015 14.0589 14.3592 16.0012 13.4476 18.4647L12.8002 20.2142L12.1528 18.4647C11.2413 16.0012 9.29897 14.0589 6.83549 13.1473L5.08594 12.4999L6.83549 11.8525C9.29897 10.941 11.2413 8.99867 12.1528 6.5352L12.8002 4.78564Z" fill="#8A8E8F"/>
</svg>
