<svg width="32" height="33" viewBox="0 0 32 33" fill="none" xmlns="http://www.w3.org/2000/svg">
<path d="M25.5 28.5V2.5H7V28.5H25.5Z" stroke="#333333" stroke-linecap="round" stroke-linejoin="round"/>
<path d="M23.5 30.5H5V4.5" stroke="#8A8E8F" stroke-linecap="round" stroke-linejoin="round"/>
<path d="M16.25 13.5C17.4926 13.5 18.5 12.4926 18.5 11.25C18.5 10.0074 17.4926 9 16.25 9C15.0074 9 14 10.0074 14 11.25C14 12.4926 15.0074 13.5 16.25 13.5Z" stroke="#F3921A"/>
<path d="M17.2425 5.7105C17.036 5.625 16.7739 5.625 16.2496 5.625C15.7254 5.625 15.4633 5.625 15.2568 5.7105C15.1202 5.76704 14.9961 5.84994 14.8916 5.95447C14.7871 6.059 14.7042 6.1831 14.6476 6.31969C14.5959 6.44513 14.5751 6.59194 14.5672 6.80513C14.5637 6.95924 14.5211 7.10994 14.4434 7.24307C14.3656 7.3762 14.2553 7.48738 14.1228 7.56619C13.9883 7.64159 13.8369 7.68156 13.6827 7.68234C13.5285 7.68313 13.3767 7.64471 13.2414 7.57069C13.0524 7.47056 12.9157 7.41544 12.7801 7.39744C12.4844 7.35855 12.1854 7.43867 11.9488 7.62019C11.7721 7.75688 11.6405 7.98356 11.3784 8.4375C11.1163 8.89144 10.9846 9.11813 10.956 9.34031C10.9366 9.48682 10.9463 9.6357 10.9846 9.77844C11.0228 9.92119 11.0888 10.055 11.1787 10.1723C11.262 10.2803 11.3784 10.3708 11.559 10.4844C11.825 10.6515 11.996 10.9361 11.996 11.25C11.996 11.5639 11.825 11.8485 11.559 12.015C11.3784 12.1292 11.2614 12.2198 11.1787 12.3278C11.0888 12.445 11.0228 12.5788 10.9846 12.7216C10.9463 12.8643 10.9366 13.0132 10.956 13.1597C10.9852 13.3813 11.1163 13.6086 11.3778 14.0625C11.6405 14.5164 11.7716 14.7431 11.9488 14.8798C12.066 14.9698 12.1998 15.0357 12.3426 15.074C12.4853 15.1122 12.6342 15.1219 12.7807 15.1026C12.9157 15.0846 13.0524 15.0294 13.2414 14.9293C13.3767 14.8553 13.5285 14.8169 13.6827 14.8177C13.8369 14.8184 13.9883 14.8584 14.1228 14.9338C14.3945 15.0913 14.556 15.381 14.5672 15.6949C14.5751 15.9086 14.5953 16.0549 14.6476 16.1803C14.7042 16.3169 14.7871 16.441 14.8916 16.5455C14.9961 16.6501 15.1202 16.733 15.2568 16.7895C15.4633 16.875 15.7254 16.875 16.2496 16.875C16.7739 16.875 17.036 16.875 17.2425 16.7895C17.379 16.733 17.5031 16.6501 17.6077 16.5455C17.7122 16.441 17.7951 16.3169 17.8516 16.1803C17.9034 16.0549 17.9242 15.9086 17.9321 15.6949C17.9433 15.381 18.1048 15.0908 18.3765 14.9338C18.511 14.8584 18.6624 14.8184 18.8166 14.8177C18.9708 14.8169 19.1226 14.8553 19.2579 14.9293C19.4469 15.0294 19.5836 15.0846 19.7186 15.1026C19.8651 15.1219 20.014 15.1122 20.1567 15.074C20.2995 15.0357 20.4333 14.9698 20.5505 14.8798C20.7277 14.7437 20.8588 14.5164 21.1209 14.0625C21.383 13.6086 21.5146 13.3819 21.5433 13.1597C21.5627 13.0132 21.5529 12.8643 21.5147 12.7216C21.4765 12.5788 21.4105 12.445 21.3206 12.3278C21.2373 12.2198 21.1209 12.1292 20.9403 12.0156C20.8086 11.9355 20.6993 11.8232 20.6229 11.6893C20.5464 11.5554 20.5053 11.4042 20.5033 11.25C20.5033 10.9361 20.6743 10.6515 20.9403 10.485C21.1209 10.3708 21.2379 10.2803 21.3206 10.1723C21.4105 10.055 21.4765 9.92119 21.5147 9.77844C21.5529 9.6357 21.5627 9.48682 21.5433 9.34031C21.5141 9.11869 21.383 8.89144 21.1215 8.4375C20.8588 7.98356 20.7277 7.75688 20.5505 7.62019C20.4333 7.53024 20.2995 7.46427 20.1567 7.42605C20.014 7.38783 19.8651 7.37811 19.7186 7.39744C19.5836 7.41544 19.4469 7.47056 19.2573 7.57069C19.1221 7.64461 18.9704 7.68298 18.8163 7.68219C18.6622 7.6814 18.5109 7.64149 18.3765 7.56619C18.244 7.48738 18.1337 7.3762 18.0559 7.24307C17.9782 7.10994 17.9356 6.95924 17.9321 6.80513C17.9242 6.59138 17.904 6.44513 17.8516 6.31969C17.7951 6.1831 17.7122 6.059 17.6077 5.95447C17.5031 5.84994 17.379 5.76704 17.2425 5.7105Z" stroke="#F3921A"/>
<path d="M10 20.5H22.5" stroke="#8A8E8F" stroke-linecap="round"/>
<path d="M10 24.5H17" stroke="#8A8E8F" stroke-linecap="round"/>
</svg>
