<svg width="25" height="25" viewBox="0 0 25 25" fill="none" xmlns="http://www.w3.org/2000/svg">
<path d="M8.1001 16C8.63135 16 9.1001 16.4688 9.1001 17C9.1001 17.5625 8.63135 18 8.1001 18C7.5376 18 7.1001 17.5625 7.1001 17C7.1001 16.4688 7.5376 16 8.1001 16ZM8.1001 14.5C6.69385 14.5 5.6001 15.625 5.6001 17C5.6001 18.4063 6.69385 19.5 8.1001 19.5C9.4751 19.5 10.6001 18.4063 10.6001 17C10.6001 15.625 9.4751 14.5 8.1001 14.5ZM19.5688 19.125C19.3813 11.6875 13.3813 5.71875 5.9751 5.53125C5.75635 5.5 5.6001 5.6875 5.6001 5.90625V6.65625C5.6001 6.84375 5.75635 7 5.94385 7.03125C12.5688 7.21875 17.8813 12.5313 18.0688 19.1563C18.1001 19.3438 18.2563 19.5 18.4438 19.5H19.1938C19.4126 19.5 19.6001 19.3438 19.5688 19.125ZM15.3188 19.125C15.1313 14.0625 11.0376 9.96875 5.9751 9.78125C5.75635 9.75 5.6001 9.9375 5.6001 10.1563V10.9063C5.6001 11.0938 5.75635 11.25 5.94385 11.2813C10.2251 11.4688 13.6313 14.875 13.8188 19.1563C13.8501 19.3438 14.0063 19.5313 14.1938 19.5313H14.9438C15.1626 19.5 15.3501 19.3438 15.3188 19.125Z" fill="#8A8E8F"/>
</svg>
